# xmcd
#
# Track frame offsets: 
#        150
#        29565
#        53915
#        75687
#        96377
#        114210
#        141417
#        162210
#        181262
#        198282
#
# Disc length: 2922 seconds
#
# Revision: 3
# Processed by: cddbd v1.5.2PL0 Copyright (c) Steve Scherf et al.
# Submitted via: ExactAudioCopyFreeDBPlugin 1.0
#
DISCID=830b680a
DTITLE=Bobby Womack - Save The Children
DYEAR=1989
DGENRE=Blues
TTITLE0=Save the Children
TTITLE1=Priorities
TTITLE2=Too Close for Comfort
TTITLE3=Baby I'm Back
TTITLE4=She's My Girl
TTITLE5=Free Love
TTITLE6=How Can it Be
TTITLE7=Tough Job
TTITLE8=Now We're Together
TTITLE9=Better Love (Everybody's Looking for a Better Love)
EXTD=5099746622824
EXTT0=
EXTT1=
EXTT2=
EXTT3=
EXTT4=
EXTT5=
EXTT6=
EXTT7=
EXTT8=
EXTT9=
PLAYORDER=
